<?xml version="1.0" encoding="UTF-8"?>
<svg version="1.1" xmlns="http://www.w3.org/2000/svg" width="1024" height="286">
<path d="M0 0 C2.03609702 0.01833221 4.07173886 0.02050858 6.10791016 0.02026367 C11.83652196 0.04586323 17.26725123 0.13163319 22.90869141 1.20581055 C22.57869141 2.19581055 22.24869141 3.18581055 21.90869141 4.20581055 C19.40781574 5.26868271 16.98030009 6.16715646 14.40869141 7.01831055 C1.87152453 11.47470853 -7.55683283 18.07458349 -13.90380859 30.14331055 C-21.67406104 47.08713862 -22.80670107 65.83934009 -24.24536133 84.14941406 C-26.14603992 107.98099944 -28.48721951 136.24040376 -47.09521484 153.5222168 C-61.23209735 165.44588873 -74.53785548 170.47859477 -93.09130859 169.20581055 C-105.38584835 167.54297077 -116.16941226 162.87679518 -127.09130859 157.20581055 C-127.09130859 156.21581055 -127.09130859 155.22581055 -127.09130859 154.20581055 C-126.30071045 154.221521 -125.5101123 154.23723145 -124.69555664 154.25341797 C-121.05671562 154.31640864 -117.41798991 154.35500338 -113.77880859 154.39331055 C-112.53550781 154.41844727 -111.29220703 154.44358398 -110.01123047 154.46948242 C-98.44575183 154.56054918 -88.01062138 153.11077011 -79.09130859 145.20581055 C-62.51945674 127.16946946 -61.92697141 95.34207207 -59.52246094 72.29418945 C-57.13840629 49.7851646 -52.98272642 26.63307369 -35.83740234 10.40112305 C-24.87666723 1.63877151 -13.60675849 -0.12681196 0 0 Z " fill="#00BAEB" transform="translate(429.09130859375,-0.205810546875)"/>
<path d="M0 0 C1.09836182 0.01063477 2.19672363 0.02126953 3.32836914 0.03222656 C11.44420932 0.22238045 18.12764291 1.26952114 25.625 4.5 C27.00171875 5.02013672 27.00171875 5.02013672 28.40625 5.55078125 C32.95124501 7.28188964 37.32247862 9.23551506 41.625 11.5 C41.625 12.49 41.625 13.48 41.625 14.5 C40.45481323 14.4685791 40.45481323 14.4685791 39.26098633 14.43652344 C35.65329395 14.35228263 32.04580953 14.30100084 28.4375 14.25 C27.21095703 14.21648438 25.98441406 14.18296875 24.72070312 14.1484375 C13.89154588 14.0341456 2.86882945 15.53082821 -5.671875 22.76171875 C-22.42028901 39.85585691 -23.19347596 70.1421124 -25.65405273 92.54760742 C-28.45821334 117.80893503 -32.46594704 144.19787621 -53.40234375 161.140625 C-63.39210555 167.92303996 -74.74832101 169.69940226 -86.5625 169.6875 C-87.39313965 169.68669434 -88.2237793 169.68588867 -89.07958984 169.68505859 C-95.55103018 169.62105947 -102.14730876 169.41803419 -108.375 167.5 C-108.705 166.84 -109.035 166.18 -109.375 165.5 C-108.34761719 165.14808594 -107.32023438 164.79617187 -106.26171875 164.43359375 C-89.8234844 158.64590325 -78.58058246 151.74566981 -70.734375 135.72265625 C-67.88319099 128.96338382 -65.90917303 122.32284876 -64.875 115.0625 C-64.7524585 114.23540527 -64.62991699 113.40831055 -64.50366211 112.55615234 C-63.40723415 104.68174247 -62.76849927 96.77348471 -62.12045288 88.85296631 C-57.88249229 37.24386689 -57.88249229 37.24386689 -42.375 19.5 C-41.74722656 18.77425781 -41.11945313 18.04851563 -40.47265625 17.30078125 C-29.50610222 5.52687355 -15.96534667 -0.27964193 0 0 Z " fill="#00BAEB" transform="translate(683.375,-0.5)"/>
<path d="M0 0 C2.06067796 -0.00217907 4.12081362 -0.0203344 6.18139648 -0.03930664 C7.49430664 -0.04124023 8.8072168 -0.04317383 10.15991211 -0.04516602 C11.95199097 -0.05132935 11.95199097 -0.05132935 13.78027344 -0.05761719 C17.59303524 0.20814099 20.64106493 1.01638339 24.26538086 2.18530273 C23.26538086 4.18530273 23.26538086 4.18530273 20.45678711 5.26342773 C19.25924805 5.65014648 18.06170898 6.03686523 16.82788086 6.43530273 C3.61105255 10.91284049 -6.63048922 18.01155897 -13.73461914 30.18530273 C-22.39914082 48.42388153 -23.8241458 67.74033268 -25.44091797 87.53955078 C-26.42984182 99.44300104 -27.66545345 111.12998729 -30.19165039 122.81811523 C-30.39277939 123.74950821 -30.59390839 124.68090118 -30.8011322 125.64051819 C-34.08063354 139.89744697 -41.07741861 152.0460264 -53.23461914 160.56030273 C-68.90047076 170.15495926 -84.97356499 170.68640262 -102.73461914 167.18530273 C-103.72461914 166.85530273 -104.71461914 166.52530273 -105.73461914 166.18530273 C-105.73461914 165.19530273 -105.73461914 164.20530273 -105.73461914 163.18530273 C-104.6118457 162.68901367 -103.48907227 162.19272461 -102.33227539 161.68139648 C-94.11743326 157.98173615 -86.34488419 154.46142251 -79.73461914 148.18530273 C-79.1996582 147.69030273 -78.66469727 147.19530273 -78.11352539 146.68530273 C-61.43617553 129.35818599 -60.83601324 100.91586007 -58.97338867 78.47558594 C-56.97816257 54.93374843 -53.76844017 26.59631883 -34.42602539 10.23217773 C-23.43507751 2.07041301 -13.40812433 -0.00158845 0 0 Z " fill="#000000" transform="translate(616.734619140625,-0.185302734375)"/>
<path d="M0 0 C2.05180714 -0.00218329 4.10307313 -0.02035943 6.15478516 -0.03930664 C7.46318359 -0.04124023 8.77158203 -0.04317383 10.11962891 -0.04516602 C11.90216064 -0.05132935 11.90216064 -0.05132935 13.72070312 -0.05761719 C17.52561528 0.20880699 20.57237504 1.01939858 24.18994141 2.18530273 C21.921644 4.45360014 19.82320655 5.11191287 16.83251953 6.13769531 C3.08957695 10.8528275 -7.91537949 18.07123987 -14.65893555 31.38647461 C-23.36854013 49.37672802 -24.27093312 68.95712329 -26.08911133 88.55419922 C-31.1237777 142.12748025 -31.1237777 142.12748025 -50.01708984 158.04467773 C-58.38773051 164.3733689 -68.26926278 168.68336008 -78.81005859 169.18530273 C-79.66470703 169.23557617 -80.51935547 169.28584961 -81.39990234 169.33764648 C-90.13528843 169.63078025 -98.31484309 167.99646543 -106.81005859 166.18530273 C-105.81005859 163.18530273 -105.81005859 163.18530273 -102.59912109 161.42358398 C-101.21381601 160.77581701 -99.82559611 160.13425983 -98.43505859 159.49780273 C-82.69065693 151.90866111 -73.0106461 142.75890648 -66.81005859 126.18530273 C-62.78723602 113.25105363 -61.50767981 100.17952521 -60.24755859 86.74780273 C-54.63921904 28.15993738 -54.63921904 28.15993738 -34.81005859 10.18530273 C-23.5469893 2.10989456 -13.68791323 -0.00163146 0 0 Z " fill="#000000" transform="translate(554.81005859375,-0.185302734375)"/>
<path d="M0 0 C2.06067796 -0.00217907 4.12081362 -0.0203344 6.18139648 -0.03930664 C7.49430664 -0.04124023 8.8072168 -0.04317383 10.15991211 -0.04516602 C11.95199097 -0.05132935 11.95199097 -0.05132935 13.78027344 -0.05761719 C17.59303524 0.20814099 20.64106493 1.01638339 24.26538086 2.18530273 C23.26538086 4.18530273 23.26538086 4.18530273 20.20288086 5.26342773 C18.89111741 5.65651907 17.57856589 6.04698686 16.26538086 6.43530273 C9.81364191 8.46671629 4.60694915 10.95565274 -0.73461914 15.18530273 C-1.34563477 15.62358398 -1.95665039 16.06186523 -2.58618164 16.51342773 C-15.68908264 26.5570611 -20.88097941 45.62300225 -23.19689941 61.31822205 C-23.56010774 64.58381671 -23.87243843 67.85007221 -24.16430664 71.12280273 C-24.40488327 73.59028078 -24.64577895 76.05772773 -24.88696289 78.52514648 C-25.24964891 82.34384464 -25.60755878 86.16289234 -25.95874023 89.98266602 C-30.71617872 141.19977578 -30.71617872 141.19977578 -49.73461914 158.18530273 C-64.22674023 168.52062246 -79.90591644 171.08270717 -97.35961914 168.24780273 C-100.27661169 167.71992875 -102.91898081 167.12384884 -105.73461914 166.18530273 C-105.73461914 165.19530273 -105.73461914 164.20530273 -105.73461914 163.18530273 C-104.6840332 162.67741211 -103.63344727 162.16952148 -102.55102539 161.64624023 C-84.75478412 152.96121649 -72.93686603 144.48828028 -66.00756836 125.15698242 C-61.00588145 109.74792555 -60.24357052 93.27671263 -58.85176086 77.23963928 C-56.90361747 54.88573206 -53.9706942 26.93464028 -35.73461914 11.18530273 C-24.143247 2.60490264 -14.2204913 -0.00168469 0 0 Z " fill="#000000" transform="translate(491.734619140625,-0.185302734375)"/>
<path d="M0 0 C3.22947788 2.09309693 6.30730134 4.23772256 9 7 C9 7.66 9 8.32 9 9 C7.92363281 9.27972656 6.84726562 9.55945313 5.73828125 9.84765625 C-6.48401062 13.14983904 -20.31694111 17.14715452 -28 28 C-32.52683913 36.11749949 -34.15009625 43.08979711 -34.0625 52.375 C-34.05347656 53.62023437 -34.04445313 54.86546875 -34.03515625 56.1484375 C-34.02355469 57.08945313 -34.01195312 58.03046875 -34 59 C-36 60 -36 60 -38.42578125 59.36328125 C-47.05570058 56.2219439 -51.52745775 53.42630314 -55.984375 45.31640625 C-59.75023515 36.72734829 -58.253414 27.90376397 -55.390625 19.28515625 C-50.95268933 8.80115655 -43.60162546 1.48025993 -33.4375 -3.375 C-22.10895945 -7.49288974 -10.43778738 -5.52831427 0 0 Z " fill="#00BAEB" transform="translate(345,88)"/>
<path d="M0 0 C7.03730118 0.25590186 11.70967675 2.30420832 17 7 C23.45484676 15.12605412 24.12591282 23.9596189 23 34 C21.0772094 41.10076196 17.72617101 47.37968852 13 53 C12.34 53 11.68 53 11 53 C10.67 53.99 10.34 54.98 10 56 C7.92578125 57.53515625 7.92578125 57.53515625 5.3125 59.0625 C4.46300781 59.56910156 3.61351562 60.07570312 2.73828125 60.59765625 C-5.92738078 65.03556305 -15.65813702 65.26198281 -25.1015625 63.3828125 C-32.33148774 61.02839881 -38.10108961 56.7008725 -44 52 C-43.67 51.34 -43.34 50.68 -43 50 C-40.42112063 49.19934792 -37.86110609 48.48998223 -35.25 47.8125 C-23.17548946 44.43554721 -12.22107816 39.81383133 -5 29 C0.05775865 20.00842907 0.22933049 10.09054163 0 0 Z " fill="#00BAEB" transform="translate(716,21)"/>
<path d="M0 0 C8 0 8 0 9.69921875 1.26245117 C10.02535156 1.85002197 10.35148438 2.43759277 10.6875 3.04296875 C11.07236572 3.699021 11.45723145 4.35507324 11.85375977 5.03100586 C12.42114868 6.09847046 12.42114868 6.09847046 13 7.1875 C13.8424318 8.65105094 14.68487997 10.11459246 15.52734375 11.578125 C15.93839355 12.31740234 16.34944336 13.05667969 16.77294922 13.81835938 C18.60930381 17.08331453 20.5846552 20.25707112 22.5625 23.4375 C23.20316406 24.48808594 23.84382812 25.53867187 24.50390625 26.62109375 C25.79429015 28.86833377 25.79429015 28.86833377 27 30 C29.40375016 26.04959789 31.80647694 22.09857594 34.20825195 18.14697266 C35.02567809 16.80240001 35.84338502 15.45799804 36.66137695 14.11376953 C37.83618622 12.18306419 39.00998868 10.25175 40.18359375 8.3203125 C40.55028671 7.71816925 40.91697968 7.116026 41.29478455 6.49563599 C43.23694406 3.29799383 43.23694406 3.29799383 45 0 C51.15234375 -0.09765625 51.15234375 -0.09765625 53 0 C54 1 54 1 54.11352539 4.78540039 C54.11336622 6.47282729 54.10766917 8.16025905 54.09765625 9.84765625 C54.0962413 10.7340831 54.09482635 11.62050995 54.09336853 12.53379822 C54.08775215 15.37673254 54.07519691 18.21958931 54.0625 21.0625 C54.05748711 22.98502491 54.05292384 24.90755104 54.04882812 26.83007812 C54.03777741 31.55341549 54.02050183 36.27669458 54 41 C51.69 41 49.38 41 47 41 C46.67 31.76 46.34 22.52 46 13 C44.83082031 15.02125 43.66164063 17.0425 42.45703125 19.125 C41.31292939 21.07361576 40.16254174 23.01838321 39.01147461 24.96289062 C38.21445176 26.31706669 37.42402969 27.67515023 36.64038086 29.03710938 C35.51304953 30.99371733 34.36276404 32.93506767 33.20703125 34.875 C32.86098343 35.48746582 32.51493561 36.09993164 32.15840149 36.73095703 C30.53164343 39.41329957 29.54679842 40.82955268 26.5 41.77929688 C22.74952767 40.61020433 21.57781875 37.92805513 19.79296875 34.65625 C19.23758171 33.69072205 19.23758171 33.69072205 18.67097473 32.70568848 C17.49197858 30.64669942 16.339731 28.5740638 15.1875 26.5 C14.39299291 25.10188754 13.59678864 23.70473808 12.79882812 22.30859375 C10.8425769 18.88464519 8.9231806 15.44348986 7 12 C6.67 21.57 6.34 31.14 6 41 C4.02 41 2.04 41 0 41 C0 27.47 0 13.94 0 0 Z " fill="#000000" transform="translate(924,239)"/>
<path d="M0 0 C2.64 0 5.28 0 8 0 C10.02380244 2.29017772 11.11289592 3.90185876 12.4375 6.5625 C13.18397835 7.93018866 13.93140417 9.29736054 14.6796875 10.6640625 C15.05577148 11.3746582 15.43185547 12.08525391 15.81933594 12.81738281 C17.77495293 16.4326053 19.92583623 19.92735766 22.0625 23.4375 C22.82513501 24.70648104 23.58693993 25.97596158 24.34765625 27.24609375 C24.89292969 28.15488281 25.43820312 29.06367188 26 30 C29.48545031 24.8906467 32.82528587 19.70795488 36.0625 14.4375 C36.74441406 13.33921875 37.42632812 12.2409375 38.12890625 11.109375 C39.25610514 9.23620107 40.34125137 7.33540549 41.33984375 5.390625 C41.91412109 4.30007812 41.91412109 4.30007812 42.5 3.1875 C42.7990625 2.56230469 43.098125 1.93710938 43.40625 1.29296875 C45 0 45 0 53 0 C53 13.53 53 27.06 53 41 C51.02 41 49.04 41 47 41 C46.67 31.43 46.34 21.86 46 12 C44.86820312 13.92585937 43.73640625 15.85171875 42.5703125 17.8359375 C41.47224495 19.69964935 40.37313685 21.56274367 39.27392578 23.42578125 C38.51046464 24.72103704 37.74808717 26.0169322 36.98681641 27.31347656 C35.89249285 29.1768228 34.79429472 31.03783606 33.6953125 32.8984375 C33.03547363 34.01911621 32.37563477 35.13979492 31.69580078 36.29443359 C30 39 30 39 28 41 C25.61328125 41.015625 25.61328125 41.015625 23 40 C21.47916983 37.8993723 20.34638083 36.03685008 19.1875 33.75 C18.50608434 32.48059922 17.8224285 31.21239883 17.13671875 29.9453125 C16.78915527 29.2946582 16.4415918 28.64400391 16.08349609 27.97363281 C14.3346223 24.78798709 12.42281668 21.70771831 10.5 18.625 C9.345 16.76875 8.19 14.9125 7 13 C6.67 22.24 6.34 31.48 6 41 C4.02 41 2.04 41 0 41 C0 27.47 0 13.94 0 0 Z " fill="#000000" transform="translate(453,239)"/>
<path d="M0 0 C0.87398437 -0.020625 1.74796875 -0.04125 2.6484375 -0.0625 C9.98214243 -0.10602347 16.87571737 1.01291052 22.875 5.5 C27.4343049 10.27641465 28.66130394 14.24589522 28.9375 20.6875 C28.73711373 26.77423283 27.36056403 31.47440322 22.921875 35.78125 C15.91757106 41.20800801 8.67743213 41.55508047 0.125 41.4375 C-0.78894531 41.43685547 -1.70289063 41.43621094 -2.64453125 41.43554688 C-9.35935163 41.39064837 -9.35935163 41.39064837 -10.5 40.25 C-10.60106874 37.37735944 -10.63969672 34.52926372 -10.6328125 31.65625 C-10.63376923 30.79439087 -10.63472595 29.93253174 -10.63571167 29.04455566 C-10.6363935 27.21866788 -10.63453904 25.39277769 -10.63037109 23.56689453 C-10.62502286 20.76198922 -10.63031599 17.95724405 -10.63671875 15.15234375 C-10.63605797 13.38281214 -10.63477681 11.61328064 -10.6328125 9.84375 C-10.63483673 8.99897095 -10.63686096 8.15419189 -10.63894653 7.28381348 C-10.60350825 -1.45732772 -7.76586879 0.04424996 0 0 Z M-2.5 5.25 C-2.5 15.48 -2.5 25.71 -2.5 36.25 C9.18079241 36.31751757 9.18079241 36.31751757 18.5 30.25 C21.51511124 25.72733314 21.79226218 21.94512067 20.875 16.625 C18.76402279 11.44351049 15.84662532 8.62031762 10.75 6.4375 C5.79079742 4.84634319 5.79079742 4.84634319 -2.5 5.25 Z " fill="#000000" transform="translate(557.5,238.75)"/>
<path d="M0 0 C1.59714844 -0.04350586 1.59714844 -0.04350586 3.2265625 -0.08789062 C9.86410746 -0.14089313 15.96787723 0.28792767 21.5 4.3125 C23.62277437 7.72452759 23.99089481 10.30352569 23.5 14.3125 C21.24176677 17.86115222 19.25967086 19.574837 15.5 21.3125 C15.81453125 21.78558594 16.1290625 22.25867188 16.453125 22.74609375 C24.5 35.17996988 24.5 35.17996988 24.5 41.3125 C22.19 41.3125 19.88 41.3125 17.5 41.3125 C17.05269531 40.33667969 16.60539063 39.36085938 16.14453125 38.35546875 C15.53461434 37.06995156 14.92389472 35.784815 14.3125 34.5 C14.02052734 33.85740234 13.72855469 33.21480469 13.42773438 32.55273438 C11.42679464 28.40024653 9.77537521 26.11536906 5.5 24.3125 C2.84466947 23.74825519 2.84466947 23.74825519 0.1875 23.625 C-0.69550781 23.55925781 -1.57851563 23.49351562 -2.48828125 23.42578125 C-3.15214844 23.38839844 -3.81601562 23.35101563 -4.5 23.3125 C-4.48839844 24.52808594 -4.47679687 25.74367188 -4.46484375 26.99609375 C-4.45546722 28.58072764 -4.44636687 30.16536318 -4.4375 31.75 C-4.42912109 32.55244141 -4.42074219 33.35488281 -4.41210938 34.18164062 C-4.4034857 36.22545221 -4.4477185 38.26933902 -4.5 40.3125 C-5.5 41.3125 -5.5 41.3125 -8.5 41.4375 C-11.5 41.3125 -11.5 41.3125 -12.5 40.3125 C-12.60106874 37.43985944 -12.63969672 34.59176372 -12.6328125 31.71875 C-12.63376923 30.85689087 -12.63472595 29.99503174 -12.63571167 29.10705566 C-12.6363935 27.28116788 -12.63453904 25.45527769 -12.63037109 23.62939453 C-12.62502286 20.82448922 -12.63031599 18.01974405 -12.63671875 15.21484375 C-12.63605797 13.44531214 -12.63477681 11.67578064 -12.6328125 9.90625 C-12.63483673 9.06147095 -12.63686096 8.21669189 -12.63894653 7.34631348 C-12.60078489 -2.06656676 -8.27631496 0.07302631 0 0 Z M-4.5 5.3125 C-4.5 9.6025 -4.5 13.8925 -4.5 18.3125 C5.44047254 18.72861084 5.44047254 18.72861084 14.5 15.3125 C16.77527322 13.49639309 16.77527322 13.49639309 16.5625 10.875 C15.67578663 8.05986267 15.67578663 8.05986267 12.75 6.5 C7.24545413 4.44589274 1.26540321 5.13418856 -4.5 5.3125 Z " fill="#000000" transform="translate(761.5,238.6875)"/>
<path d="M0 0 C6 0 6 0 8.1171875 1.4609375 C8.69726562 2.09257812 9.27734375 2.72421875 9.875 3.375 C10.76832031 4.31472656 10.76832031 4.31472656 11.6796875 5.2734375 C13 7 13 7 13 9 C13.66 9 14.32 9 15 9 C16.3046875 10.29296875 16.3046875 10.29296875 17.875 12.1875 C21.2979789 16.22094648 24.84124742 20.12184088 28.4375 24 C30.273125 25.98 32.10875 27.96 34 30 C34.33 20.1 34.66 10.2 35 0 C36.98 0 38.96 0 41 0 C41 13.53 41 27.06 41 41 C34 41 34 41 31.83984375 39.33984375 C31.21207031 38.54707031 30.58429688 37.75429688 29.9375 36.9375 C28.82375 35.58978516 28.82375 35.58978516 27.6875 34.21484375 C27.27371094 33.70937012 26.85992187 33.20389648 26.43359375 32.68310547 C22.9803513 28.62883887 19.20809261 24.84458348 15.52124023 21.00366211 C14.93544189 20.38370361 14.34964355 19.76374512 13.74609375 19.125 C13.21685303 18.57070313 12.6876123 18.01640625 12.14233398 17.4453125 C11 16 11 16 11 14 C10.01 13.67 9.02 13.34 8 13 C7.67 12.34 7.34 11.68 7 11 C6.67 20.9 6.34 30.8 6 41 C4.02 41 2.04 41 0 41 C0 27.47 0 13.94 0 0 Z " fill="#000000" transform="translate(209,239)"/>
<path d="M0 0 C1.4540625 0.0309375 1.4540625 0.0309375 2.9375 0.0625 C4.47016582 3.12783164 4.04026471 6.33004272 4 9.6875 C3.99548828 10.39390625 3.99097656 11.1003125 3.98632812 11.828125 C3.97453875 13.57295275 3.95660324 15.317737 3.9375 17.0625 C5.47910991 15.86085677 7.02035022 14.65873661 8.55981445 13.4543457 C9.85722629 12.44002335 11.15655883 11.42815314 12.45776367 10.41870117 C15.72334757 7.87000307 18.80008693 5.28979506 21.75 2.375 C25.92154937 -0.65141817 28.95300079 -0.54784684 33.9375 0.0625 C32.57736419 3.21041257 31.15696401 4.97613823 28.4609375 7.078125 C27.790625 7.60664063 27.1203125 8.13515625 26.4296875 8.6796875 C25.73101563 9.21851563 25.03234375 9.75734375 24.3125 10.3125 C23.60609375 10.86679688 22.8996875 11.42109375 22.171875 11.9921875 C20.43218917 13.35572504 18.68740519 14.71211945 16.9375 16.0625 C18.7577366 19.97744916 21.30237049 22.82937539 24.25 25.9375 C34.9375 37.30841837 34.9375 37.30841837 34.9375 41.0625 C28.02176626 41.76301613 28.02176626 41.76301613 25.24609375 39.96972656 C23.69058654 38.44975639 22.3086223 36.87533224 20.9375 35.1875 C20.20466797 34.35412109 20.20466797 34.35412109 19.45703125 33.50390625 C15.9375 29.4125744 15.9375 29.4125744 15.9375 27.0625 C15.2775 27.0625 14.6175 27.0625 13.9375 27.0625 C12.23069053 25.43696717 10.56089805 23.77134005 8.9375 22.0625 C6.82517599 23.04955135 6.82517599 23.04955135 4.9375 25.0625 C4.50570986 27.72373721 4.28756689 30.02275499 4.25 32.6875 C4.02654602 39.97345398 4.02654602 39.97345398 2.9375 41.0625 C0.60452567 41.10342937 -1.72955225 41.10491723 -4.0625 41.0625 C-4.08714705 35.38419922 -4.10533462 29.70592931 -4.11743164 24.02758789 C-4.12247256 22.09431415 -4.12930519 20.16104424 -4.13793945 18.2277832 C-4.15001565 15.45523128 -4.15573057 12.68272959 -4.16015625 9.91015625 C-4.16531754 9.04036636 -4.17047882 8.17057648 -4.17579651 7.27442932 C-4.17599185 5.20344186 -4.12458168 3.13255676 -4.0625 1.0625 C-3.0625 0.0625 -3.0625 0.0625 0 0 Z " fill="#000000" transform="translate(607.0625,238.9375)"/>
<path d="M0 0 C1 1 1 1 1.0625 4.5625 C1.041875 5.696875 1.02125 6.83125 1 8 C-4.7109375 6.140625 -4.7109375 6.140625 -7.3125 4.875 C-12.40235678 3.21783733 -17.23630789 3.1361508 -22.0625 5.5 C-23.0215625 6.2425 -23.0215625 6.2425 -24 7 C-24.04289755 8.93109581 -24.04289755 8.93109581 -23 11 C-17.51370536 14.06211794 -11.36271891 15.30876579 -5.3046875 16.83984375 C-1.24661655 18.26448568 2.02785615 20.05571231 4 24 C4.22439216 28.96589603 3.75142964 32.13860505 0.4375 35.9375 C-5.95710241 40.36335847 -13.86461861 40.8318469 -21.36328125 39.6171875 C-25.22577805 38.82066607 -28.50885035 37.87138202 -32 36 C-32 33.69 -32 31.38 -32 29 C-28.91008394 29.4681691 -26.6447504 30.17414196 -23.8125 31.5625 C-18.31713467 34.00354849 -12.44626896 33.92958221 -6.875 31.8125 C-4.72598438 30.11832008 -4.72598438 30.11832008 -4.6875 27.3125 C-4.790625 26.549375 -4.89375 25.78625 -5 25 C-9.41927939 22.59881259 -13.76164178 21.1145877 -18.625 19.9375 C-29.08382353 17.37426471 -29.08382353 17.37426471 -32 13 C-32.77603934 6.12650872 -32.77603934 6.12650872 -30.0625 2.1875 C-20.40904898 -4.70782215 -10.80101184 -3.60656624 0 0 Z " fill="#000000" transform="translate(154,241)"/>
<path d="M0 0 C10.89 0 21.78 0 33 0 C33 1.65 33 3.3 33 5 C24.42 5 15.84 5 7 5 C7 8.96 7 12.92 7 17 C15.25 17 23.5 17 32 17 C32 18.65 32 20.3 32 22 C31 23 31 23 28.68334961 23.11352539 C27.68311768 23.10828857 26.68288574 23.10305176 25.65234375 23.09765625 C24.57275391 23.09443359 23.49316406 23.09121094 22.38085938 23.08789062 C21.24455078 23.07951172 20.10824219 23.07113281 18.9375 23.0625 C17.79732422 23.05798828 16.65714844 23.05347656 15.48242188 23.04882812 C12.65492582 23.0369976 9.82745655 23.0190615 7 23 C7 27.29 7 31.58 7 36 C15.58 36 24.16 36 33 36 C33 37.65 33 39.3 33 41 C22.11 41 11.22 41 0 41 C0 27.47 0 13.94 0 0 Z " fill="#000000" transform="translate(510,239)"/>
<path d="M0 0 C12.21 0 24.42 0 37 0 C37 6 37 6 35.05859375 8.4921875 C33.76115234 9.67167969 33.76115234 9.67167969 32.4375 10.875 C29.28067382 13.84117516 26.2364986 16.75519269 23.4375 20.0625 C20.10637958 23.96603252 16.49698703 27.54021939 12.8203125 31.1171875 C10.93616102 32.87753339 10.93616102 32.87753339 10 35 C19.57 35.33 29.14 35.66 39 36 C39 37.65 39 39.3 39 41 C25.14 41 11.28 41 -3 41 C-1.88363563 35.41817815 -0.87870391 34.4566545 3.125 30.6875 C7.08372277 26.8923397 10.81711505 23.01742272 14.375 18.84375 C16.60302107 16.31580301 18.99515818 13.97662343 21.421875 11.640625 C23.350062 9.70293957 23.350062 9.70293957 26 6 C13.13 5.505 13.13 5.505 0 5 C0 3.35 0 1.7 0 0 Z " fill="#000000" transform="translate(255,239)"/>
<path d="M0 0 C1.98 0 3.96 0 6 0 C10.76649492 9.41007163 15.42315395 18.87118697 20 28.375 C20.49282471 29.39150635 20.98564941 30.4080127 21.4934082 31.45532227 C21.9493335 32.40592529 22.40525879 33.35652832 22.875 34.3359375 C23.28492188 35.18720215 23.69484375 36.0384668 24.1171875 36.91552734 C25 39 25 39 25 41 C22.36 41 19.72 41 17 41 C16.15930585 39.39967863 15.32768495 37.79458829 14.5 36.1875 C14.0359375 35.29417969 13.571875 34.40085937 13.09375 33.48046875 C12 31 12 31 12 28 C6.06 28.33 0.12 28.66 -6 29 C-7.98 32.96 -9.96 36.92 -12 41 C-14.31 41 -16.62 41 -19 41 C-18.36213136 36.72052677 -16.8661997 33.29595131 -14.98046875 29.4140625 C-14.68062576 28.79405365 -14.38078278 28.1740448 -14.07185364 27.5352478 C-13.43822191 26.22791293 -12.80182868 24.9219133 -12.1628418 23.6171875 C-11.1953447 21.64102321 -10.23660648 19.66080364 -9.27929688 17.6796875 C-6.36085925 11.67129207 -3.35820009 5.77461712 0 0 Z M2 10 C1.16180842 11.62249941 0.3295884 13.24808497 -0.5 14.875 C-0.9640625 15.77992188 -1.428125 16.68484375 -1.90625 17.6171875 C-3.13905589 19.86596859 -3.13905589 19.86596859 -3 22 C0.96 22 4.92 22 9 22 C7.35 18.04 5.7 14.08 4 10 C3.34 10 2.68 10 2 10 Z " fill="#000000" transform="translate(808,239)"/>
<path d="M0 0 C2.31 0 4.62 0 7 0 C7.26627197 0.59312988 7.53254395 1.18625977 7.80688477 1.79736328 C12.56851238 12.38627221 17.32170572 22.94178806 22.72265625 33.22265625 C23.93379981 35.85606014 24.57557551 38.14430436 25 41 C22.36 41 19.72 41 17 41 C16.16209211 39.21046815 15.32980604 37.41830305 14.5 35.625 C14.0359375 34.62726563 13.571875 33.62953125 13.09375 32.6015625 C12 30 12 30 12 28 C6.06 28.33 0.12 28.66 -6 29 C-7.98 32.96 -9.96 36.92 -12 41 C-14.31 41 -16.62 41 -19 41 C-18.39432101 37.31483479 -17.35879343 34.29872221 -15.7421875 30.9375 C-15.28432861 29.98109619 -14.82646973 29.02469238 -14.35473633 28.03930664 C-13.62226685 26.53484985 -13.62226685 26.53484985 -12.875 25 C-12.38088623 23.97575928 -11.88677246 22.95151855 -11.37768555 21.89624023 C-7.78046686 14.485583 -4.03805795 7.18030099 0 0 Z M3 9 C1.99759911 10.97795176 0.99813957 12.95739442 0 14.9375 C-0.556875 16.03964844 -1.11375 17.14179688 -1.6875 18.27734375 C-3.07237383 20.64638243 -3.07237383 20.64638243 -3 22 C0.96 22 4.92 22 9 22 C7.58192622 17.52761347 5.88695626 13.28853694 4 9 C3.67 9 3.34 9 3 9 Z " fill="#000000" transform="translate(314,239)"/>
<path d="M0 0 C2.31 0 4.62 0 7 0 C9.41277833 4.86979284 11.8151769 9.74451789 14.20825195 14.62402344 C15.02315093 16.28198274 15.84082976 17.93857881 16.66137695 19.59375 C17.84285738 21.97820533 19.01413145 24.36744441 20.18359375 26.7578125 C20.55028671 27.49242706 20.91697968 28.22704163 21.29478455 28.98391724 C23.24610109 32.9996266 24.5263577 36.49885027 25 41 C22.69 41 20.38 41 18 41 C16.02 37.04 14.04 33.08 12 29 C6.06 28.67 0.12 28.34 -6 28 C-6.45375 29.4025 -6.9075 30.805 -7.375 32.25 C-8.36783204 35.31875358 -9.49439503 38.14589666 -11 41 C-13.64 41 -16.28 41 -19 41 C-17.52105892 36.1741296 -15.55863442 31.77936718 -13.33984375 27.265625 C-12.81494102 26.18677032 -12.81494102 26.18677032 -12.2794342 25.08612061 C-11.16892184 22.80570456 -10.05328892 20.52783814 -8.9375 18.25 C-8.18390699 16.70459176 -7.43064838 15.15902041 -6.67773438 13.61328125 C-1.68980766 3.37961533 -1.68980766 3.37961533 0 0 Z M3 9 C1.02 13.29 -0.96 17.58 -3 22 C0.96 22 4.92 22 9 22 C8.22998773 18.14993864 7.6738858 15.99223427 5.9375 12.6875 C5.57527344 11.99011719 5.21304688 11.29273438 4.83984375 10.57421875 C4.56269531 10.05472656 4.28554688 9.53523437 4 9 C3.67 9 3.34 9 3 9 Z " fill="#000000" transform="translate(999,239)"/>
<path d="M0 0 C2.31 0 4.62 0 7 0 C11.57954377 9.04395935 16.08064934 18.12666523 20.5 27.25 C20.94520996 28.15451904 21.39041992 29.05903809 21.84912109 29.9909668 C22.25984863 30.844729 22.67057617 31.69849121 23.09375 32.578125 C23.46177734 33.33512695 23.82980469 34.09212891 24.20898438 34.87207031 C25 37 25 37 25 41 C22.69 41 20.38 41 18 41 C16.02 37.04 14.04 33.08 12 29 C6.06 28.67 0.12 28.34 -6 28 C-6.33 29.65 -6.66 31.3 -7 33 C-7.97265625 35.23828125 -7.97265625 35.23828125 -9.0625 37.3125 C-9.42472656 38.00988281 -9.78695312 38.70726562 -10.16015625 39.42578125 C-10.43730469 39.94527344 -10.71445312 40.46476562 -11 41 C-13.64 41 -16.28 41 -19 41 C-17.32903278 35.38702722 -14.85084742 30.25787021 -12.3125 25 C-11.86986816 24.07678955 -11.42723633 23.1535791 -10.97119141 22.20239258 C-7.3933829 14.76145666 -3.73684332 7.36232375 0 0 Z M3 9 C2.15930585 10.60032137 1.32768495 12.20541171 0.5 13.8125 C0.0359375 14.70582031 -0.428125 15.59914062 -0.90625 16.51953125 C-2.20173141 19.00568026 -2.20173141 19.00568026 -2 22 C1.96 22 5.92 22 10 22 C9.21658881 20.01755108 8.42302514 18.03911141 7.625 16.0625 C7.18414063 14.96035156 6.74328125 13.85820312 6.2890625 12.72265625 C5.28958568 9.88769814 5.28958568 9.88769814 3 9 Z " fill="#000000" transform="translate(662,239)"/>
<path d="M0 0 C2.31 0 4.62 0 7 0 C11.70653213 9.17642299 16.19832358 18.43895105 20.5 27.8125 C20.94520996 28.7730127 21.39041992 29.73352539 21.84912109 30.72314453 C22.4652124 32.07641846 22.4652124 32.07641846 23.09375 33.45703125 C23.46177734 34.26116455 23.82980469 35.06529785 24.20898438 35.89379883 C25 38 25 38 25 41 C22.69 41 20.38 41 18 41 C16.02 37.04 14.04 33.08 12 29 C6.06 28.67 0.12 28.34 -6 28 C-6.45375 29.4025 -6.9075 30.805 -7.375 32.25 C-8.36783204 35.31875358 -9.49439503 38.14589666 -11 41 C-13.64 41 -16.28 41 -19 41 C-17.32903278 35.38702722 -14.85084742 30.25787021 -12.3125 25 C-11.86986816 24.07678955 -11.42723633 23.1535791 -10.97119141 22.20239258 C-7.3933829 14.76145666 -3.73684332 7.36232375 0 0 Z M3 9 C2.15930585 10.60032137 1.32768495 12.20541171 0.5 13.8125 C0.0359375 14.70582031 -0.428125 15.59914062 -0.90625 16.51953125 C-2.20173141 19.00568026 -2.20173141 19.00568026 -2 22 C1.63 22 5.26 22 9 22 C8.22998773 18.14993864 7.6738858 15.99223427 5.9375 12.6875 C5.57527344 11.99011719 5.21304688 11.29273438 4.83984375 10.57421875 C4.56269531 10.05472656 4.28554687 9.53523437 4 9 C3.67 9 3.34 9 3 9 Z " fill="#000000" transform="translate(180,239)"/>
<path d="M0 0 C2.31 0 4.62 0 7 0 C11.57954377 9.04395935 16.08064934 18.12666523 20.5 27.25 C20.94520996 28.15451904 21.39041992 29.05903809 21.84912109 29.9909668 C22.25984863 30.844729 22.67057617 31.69849121 23.09375 32.578125 C23.46177734 33.33512695 23.82980469 34.09212891 24.20898438 34.87207031 C25 37 25 37 25 41 C22.69 41 20.38 41 18 41 C16.02 37.04 14.04 33.08 12 29 C6.06 28.67 0.12 28.34 -6 28 C-6.45375 29.4025 -6.9075 30.805 -7.375 32.25 C-8.36783204 35.31875358 -9.49439503 38.14589666 -11 41 C-13.64 41 -16.28 41 -19 41 C-17.32903278 35.38702722 -14.85084742 30.25787021 -12.3125 25 C-11.86986816 24.07678955 -11.42723633 23.1535791 -10.97119141 22.20239258 C-7.3933829 14.76145666 -3.73684332 7.36232375 0 0 Z M3 9 C2.15930585 10.60032137 1.32768495 12.20541171 0.5 13.8125 C0.0359375 14.70582031 -0.428125 15.59914062 -0.90625 16.51953125 C-2.20173141 19.00568026 -2.20173141 19.00568026 -2 22 C1.96 22 5.92 22 10 22 C8.02 17.71 6.04 13.42 4 9 C3.67 9 3.34 9 3 9 Z " fill="#000000" transform="translate(895,239)"/>
<path d="M0 0 C1.98 0 3.96 0 6 0 C11.21035799 9.48939595 16.07501926 19.08318015 20.5625 28.9375 C21.00384277 29.90252441 21.44518555 30.86754883 21.89990234 31.86181641 C25 38.74312177 25 38.74312177 25 41 C22.36 41 19.72 41 17 41 C16.16209211 39.21046815 15.32980604 37.41830305 14.5 35.625 C14.0359375 34.62726563 13.571875 33.62953125 13.09375 32.6015625 C12 30 12 30 12 28 C6.06 28.33 0.12 28.66 -6 29 C-7.98 32.96 -9.96 36.92 -12 41 C-14.31 41 -16.62 41 -19 41 C-18.39432101 37.31483479 -17.35879343 34.29872221 -15.7421875 30.9375 C-15.28432861 29.98109619 -14.82646973 29.02469238 -14.35473633 28.03930664 C-13.62226685 26.53484985 -13.62226685 26.53484985 -12.875 25 C-12.38088623 23.97575928 -11.88677246 22.95151855 -11.37768555 21.89624023 C-7.78046686 14.485583 -4.03805795 7.18030099 0 0 Z M3 9 C1.99491199 10.78881736 0.99607264 12.58114696 0 14.375 C-0.556875 15.37273437 -1.11375 16.37046875 -1.6875 17.3984375 C-3.15014268 19.81195509 -3.15014268 19.81195509 -3 22 C0.96 22 4.92 22 9 22 C7.58192622 17.52761347 5.88695626 13.28853694 4 9 C3.67 9 3.34 9 3 9 Z " fill="#000000" transform="translate(404,239)"/>
<path d="M0 0 C5.445 -0.0928125 5.445 -0.0928125 11 -0.1875 C12.12792969 -0.21481201 13.25585938 -0.24212402 14.41796875 -0.27026367 C21.08366143 -0.32491013 27.30725059 -0.0930027 32.6640625 4.39379883 C34.86728362 7.04273738 34.82614643 9.63883091 35 13 C33.95364899 17.49930935 31.76013688 19.43210164 28 22 C25.23434618 22.92188461 23.61716298 23.11785222 20.76953125 23.09765625 C20.04612549 23.09515869 19.32271973 23.09266113 18.57739258 23.09008789 C17.66497803 23.08098389 16.75256348 23.07187988 15.8125 23.0625 C12.904375 23.041875 9.99625 23.02125 7 23 C7 28.94 7 34.88 7 41 C4.69 41 2.38 41 0 41 C0 27.47 0 13.94 0 0 Z M7 5 C7 9.29 7 13.58 7 18 C9.22855574 18.0814222 11.45797655 18.13938079 13.6875 18.1875 C14.92886719 18.22230469 16.17023437 18.25710938 17.44921875 18.29296875 C21.49607131 17.95907002 24.11242948 16.88757052 27 14 C27.41717279 11.58462162 27.41717279 11.58462162 27 9 C23.70858001 5.70858001 20.53098867 5.04957865 15.984375 4.90234375 C14.38335938 4.91974609 14.38335938 4.91974609 12.75 4.9375 C9.90375 4.9684375 9.90375 4.9684375 7 5 Z " fill="#000000" transform="translate(711,239)"/>
<path d="M0 0 C5.445 -0.0928125 5.445 -0.0928125 11 -0.1875 C12.12792969 -0.21481201 13.25585938 -0.24212402 14.41796875 -0.27026367 C21.08366143 -0.32491013 27.30725059 -0.0930027 32.6640625 4.39379883 C34.86728362 7.04273738 34.82614643 9.63883091 35 13 C33.95364899 17.49930935 31.76013688 19.43210164 28 22 C25.23434618 22.92188461 23.61716298 23.11785222 20.76953125 23.09765625 C20.04612549 23.09515869 19.32271973 23.09266113 18.57739258 23.09008789 C17.66497803 23.08098389 16.75256348 23.07187988 15.8125 23.0625 C12.904375 23.041875 9.99625 23.02125 7 23 C7 28.94 7 34.88 7 41 C4.69 41 2.38 41 0 41 C0 27.47 0 13.94 0 0 Z M7 5 C7 9.29 7 13.58 7 18 C9.22855574 18.0814222 11.45797655 18.13938079 13.6875 18.1875 C14.92886719 18.22230469 16.17023437 18.25710938 17.44921875 18.29296875 C21.49607131 17.95907002 24.11242948 16.88757052 27 14 C27.41717279 11.58462162 27.41717279 11.58462162 27 9 C23.70858001 5.70858001 20.53098867 5.04957865 15.984375 4.90234375 C14.38335937 4.91974609 14.38335937 4.91974609 12.75 4.9375 C9.90375 4.9684375 9.90375 4.9684375 7 5 Z " fill="#000000" transform="translate(0,239)"/>
<path d="M0 0 C3.15369032 -0.50684309 4.96023102 -0.76123687 8 0 C11.14001675 2.63485866 13.51705506 5.75470097 16 9 C16.99548948 10.1497542 17.99472068 11.29629559 19 12.4375 C21 15 21 15 21 17 C24.19944105 13.9369472 26.92443223 10.84725097 29.59033203 7.29199219 C34.86859392 0.36256008 34.86859392 0.36256008 38.42578125 -0.77734375 C40.625 -0.75 40.625 -0.75 44 0 C43.47403544 4.16875613 41.19493533 6.26819527 38.375 9.25 C37.70319702 9.98657837 37.70319702 9.98657837 37.01782227 10.73803711 C35.03713357 12.90287709 33.04959351 14.95768139 30.81640625 16.86328125 C26.41176831 20.84668562 25.58903684 24.21377831 25.17211914 29.97631836 C25.01229458 33.65584272 24.97245566 37.31692853 25 41 C23.02 41 21.04 41 19 41 C19.07863281 39.87464844 19.15726562 38.74929688 19.23828125 37.58984375 C19.52777049 28.01152594 18.39510902 21.91267221 11.75 14.75 C10.0656917 13.00366938 8.35689384 11.29258143 6.61523438 9.60351562 C4.19782931 7.20364917 2.0768506 4.70146732 0 2 C0 1.34 0 0.68 0 0 Z " fill="#000000" transform="translate(340,239)"/>
<path d="M0 0 C13.53 0 27.06 0 41 0 C41 1.65 41 3.3 41 5 C35.39 5 29.78 5 24 5 C24 16.88 24 28.76 24 41 C21.69 41 19.38 41 17 41 C17 29.12 17 17.24 17 5 C11.39 5 5.78 5 0 5 C0 3.35 0 1.7 0 0 Z " fill="#000000" transform="translate(834,239)"/>
<path d="M0 0 C13.2 0 26.4 0 40 0 C40 1.65 40 3.3 40 5 C34.72 5 29.44 5 24 5 C24 16.88 24 28.76 24 41 C21.69 41 19.38 41 17 41 C17 29.12 17 17.24 17 5 C11.39 5 5.78 5 0 5 C0 3.35 0 1.7 0 0 Z " fill="#000000" transform="translate(37,239)"/>
<path d="M0 0 C1.98 0 3.96 0 6 0 C6 13.53 6 27.06 6 41 C4.02 41 2.04 41 0 41 C0 27.47 0 13.94 0 0 Z " fill="#000000" transform="translate(592,239)"/>
<path d="M0 0 C0.763125 0.20625 1.52625 0.4125 2.3125 0.625 C2.9375 3.5 2.9375 3.5 3.3125 6.625 C1.3125 8.625 1.3125 8.625 -1.75 8.8125 C-4.6875 8.625 -4.6875 8.625 -5.6875 7.625 C-5.9375 4.6875 -5.9375 4.6875 -5.6875 1.625 C-2.6875 -0.375 -2.6875 -0.375 0 0 Z " fill="#000000" transform="translate(88.6875,271.375)"/>
</svg>
